<mxfile host="app.diagrams.net" modified="2022-06-09T08:23:08.144Z" agent="5.0 (Windows NT 10.0; Win64; x64) AppleWebKit/537.36 (KHTML, like Gecko) Chrome/102.0.5005.63 Safari/537.36 Edg/102.0.1245.33" etag="hyk-p1f_2Ra-MI053p1C" version="18.0.5" type="github">
  <diagram id="prtHgNgQTEPvFCAcTncT" name="Page-1">
    <mxGraphModel dx="1038" dy="539" grid="1" gridSize="10" guides="1" tooltips="1" connect="1" arrows="1" fold="1" page="1" pageScale="1" pageWidth="827" pageHeight="1169" math="0" shadow="0">
      <root>
        <mxCell id="0" />
        <mxCell id="1" parent="0" />
        <mxCell id="ncPMUlyyr94SvJH-5i3p-1" value="paymentupload（收款图片上传页面）" style="swimlane;" vertex="1" parent="1">
          <mxGeometry x="40" y="40" width="720" height="340" as="geometry" />
        </mxCell>
        <mxCell id="ncPMUlyyr94SvJH-5i3p-6" value="组件 ImageUpload&#xa;用于进行图片上传事务" style="swimlane;fontStyle=0;childLayout=stackLayout;horizontal=1;startSize=30;horizontalStack=0;resizeParent=1;resizeParentMax=0;resizeLast=0;collapsible=1;marginBottom=0;" vertex="1" parent="ncPMUlyyr94SvJH-5i3p-1">
          <mxGeometry x="40" y="140" width="190" height="60" as="geometry" />
        </mxCell>
        <mxCell id="ncPMUlyyr94SvJH-5i3p-7" value="onSuccess&#xa;用于执行图片上传后的回调" style="text;strokeColor=none;fillColor=none;align=left;verticalAlign=middle;spacingLeft=4;spacingRight=4;overflow=hidden;points=[[0,0.5],[1,0.5]];portConstraint=eastwest;rotatable=0;" vertex="1" parent="ncPMUlyyr94SvJH-5i3p-6">
          <mxGeometry y="30" width="190" height="30" as="geometry" />
        </mxCell>
        <mxCell id="ncPMUlyyr94SvJH-5i3p-10" value="组件 payment-data-list&#xa;用于处理上传待提交列表" style="swimlane;fontStyle=0;childLayout=stackLayout;horizontal=1;startSize=30;horizontalStack=0;resizeParent=1;resizeParentMax=0;resizeLast=0;collapsible=1;marginBottom=0;" vertex="1" parent="ncPMUlyyr94SvJH-5i3p-1">
          <mxGeometry x="260" y="140" width="190" height="150" as="geometry" />
        </mxCell>
        <mxCell id="ncPMUlyyr94SvJH-5i3p-11" value="tableData&#xa;展示的数据源" style="text;strokeColor=none;fillColor=none;align=left;verticalAlign=middle;spacingLeft=4;spacingRight=4;overflow=hidden;points=[[0,0.5],[1,0.5]];portConstraint=eastwest;rotatable=0;" vertex="1" parent="ncPMUlyyr94SvJH-5i3p-10">
          <mxGeometry y="30" width="190" height="30" as="geometry" />
        </mxCell>
        <mxCell id="ncPMUlyyr94SvJH-5i3p-12" value="onSubmit&#xa;处理提交当前列表数据" style="text;strokeColor=none;fillColor=none;align=left;verticalAlign=middle;spacingLeft=4;spacingRight=4;overflow=hidden;points=[[0,0.5],[1,0.5]];portConstraint=eastwest;rotatable=0;" vertex="1" parent="ncPMUlyyr94SvJH-5i3p-10">
          <mxGeometry y="60" width="190" height="30" as="geometry" />
        </mxCell>
        <mxCell id="ncPMUlyyr94SvJH-5i3p-13" value="onDelete&#xa;处理删除当前列表某一数据" style="text;strokeColor=none;fillColor=none;align=left;verticalAlign=middle;spacingLeft=4;spacingRight=4;overflow=hidden;points=[[0,0.5],[1,0.5]];portConstraint=eastwest;rotatable=0;" vertex="1" parent="ncPMUlyyr94SvJH-5i3p-10">
          <mxGeometry y="90" width="190" height="30" as="geometry" />
        </mxCell>
        <mxCell id="ncPMUlyyr94SvJH-5i3p-14" value="onEditData&#xa;处理编辑当前列表某一数据" style="text;strokeColor=none;fillColor=none;align=left;verticalAlign=middle;spacingLeft=4;spacingRight=4;overflow=hidden;points=[[0,0.5],[1,0.5]];portConstraint=eastwest;rotatable=0;" vertex="1" parent="ncPMUlyyr94SvJH-5i3p-10">
          <mxGeometry y="120" width="190" height="30" as="geometry" />
        </mxCell>
        <mxCell id="ncPMUlyyr94SvJH-5i3p-15" value="组件 payment-data-list&#xa;用于处理被驳回列表" style="swimlane;fontStyle=0;childLayout=stackLayout;horizontal=1;startSize=30;horizontalStack=0;resizeParent=1;resizeParentMax=0;resizeLast=0;collapsible=1;marginBottom=0;" vertex="1" parent="ncPMUlyyr94SvJH-5i3p-1">
          <mxGeometry x="490" y="140" width="190" height="150" as="geometry" />
        </mxCell>
        <mxCell id="ncPMUlyyr94SvJH-5i3p-16" value="tableData&#xa;展示的数据源" style="text;strokeColor=none;fillColor=none;align=left;verticalAlign=middle;spacingLeft=4;spacingRight=4;overflow=hidden;points=[[0,0.5],[1,0.5]];portConstraint=eastwest;rotatable=0;" vertex="1" parent="ncPMUlyyr94SvJH-5i3p-15">
          <mxGeometry y="30" width="190" height="30" as="geometry" />
        </mxCell>
        <mxCell id="ncPMUlyyr94SvJH-5i3p-17" value="onSubmit&#xa;处理提交当前列表数据" style="text;strokeColor=none;fillColor=none;align=left;verticalAlign=middle;spacingLeft=4;spacingRight=4;overflow=hidden;points=[[0,0.5],[1,0.5]];portConstraint=eastwest;rotatable=0;" vertex="1" parent="ncPMUlyyr94SvJH-5i3p-15">
          <mxGeometry y="60" width="190" height="30" as="geometry" />
        </mxCell>
        <mxCell id="ncPMUlyyr94SvJH-5i3p-18" value="onDelete&#xa;处理删除当前列表某一数据" style="text;strokeColor=none;fillColor=none;align=left;verticalAlign=middle;spacingLeft=4;spacingRight=4;overflow=hidden;points=[[0,0.5],[1,0.5]];portConstraint=eastwest;rotatable=0;" vertex="1" parent="ncPMUlyyr94SvJH-5i3p-15">
          <mxGeometry y="90" width="190" height="30" as="geometry" />
        </mxCell>
        <mxCell id="ncPMUlyyr94SvJH-5i3p-19" value="onEditData&#xa;处理编辑当前列表某一数据" style="text;strokeColor=none;fillColor=none;align=left;verticalAlign=middle;spacingLeft=4;spacingRight=4;overflow=hidden;points=[[0,0.5],[1,0.5]];portConstraint=eastwest;rotatable=0;" vertex="1" parent="ncPMUlyyr94SvJH-5i3p-15">
          <mxGeometry y="120" width="190" height="30" as="geometry" />
        </mxCell>
        <mxCell id="ncPMUlyyr94SvJH-5i3p-20" value="pendingTableData&lt;br&gt;待提交列表数据" style="shape=cube;whiteSpace=wrap;html=1;boundedLbl=1;backgroundOutline=1;darkOpacity=0.05;darkOpacity2=0.1;" vertex="1" parent="ncPMUlyyr94SvJH-5i3p-1">
          <mxGeometry x="40" y="40" width="150" height="60" as="geometry" />
        </mxCell>
        <mxCell id="ncPMUlyyr94SvJH-5i3p-21" value="noPassTableData&lt;br&gt;被驳回列表数据" style="shape=cube;whiteSpace=wrap;html=1;boundedLbl=1;backgroundOutline=1;darkOpacity=0.05;darkOpacity2=0.1;" vertex="1" parent="ncPMUlyyr94SvJH-5i3p-1">
          <mxGeometry x="240" y="40" width="150" height="60" as="geometry" />
        </mxCell>
      </root>
    </mxGraphModel>
  </diagram>
</mxfile>
